<svg width="56" height="57" viewBox="0 0 56 57" fill="none" xmlns="http://www.w3.org/2000/svg">
<path d="M12.1992 17.1055H5.76562V12.6582H12.1992C13.1484 12.6582 13.9102 12.5 14.4844 12.1836C15.0703 11.8672 15.498 11.4336 15.7676 10.8828C16.0488 10.3203 16.1895 9.6875 16.1895 8.98438C16.1895 8.25781 16.0488 7.58398 15.7676 6.96289C15.498 6.33008 15.0703 5.82031 14.4844 5.43359C13.9102 5.04688 13.1484 4.85352 12.1992 4.85352H7.83984V26H2.10938V0.40625H12.1992C14.2383 0.40625 15.9844 0.775391 17.4375 1.51367C18.9023 2.25195 20.0215 3.26563 20.7949 4.55469C21.5801 5.83203 21.9727 7.29688 21.9727 8.94922C21.9727 10.6016 21.5801 12.0371 20.7949 13.2559C20.0215 14.4746 18.9023 15.4238 17.4375 16.1035C15.9844 16.7715 14.2383 17.1055 12.1992 17.1055ZM35.0332 21.4648V13.3086C35.0332 12.7344 34.9453 12.2422 34.7695 11.832C34.5938 11.4219 34.3184 11.0996 33.9434 10.8652C33.5684 10.6309 33.082 10.5137 32.4844 10.5137C31.9805 10.5137 31.541 10.6016 31.166 10.7773C30.8027 10.9531 30.5215 11.2051 30.3223 11.5332C30.1348 11.8613 30.041 12.2656 30.041 12.7461H24.5566C24.5566 11.8906 24.75 11.0938 25.1367 10.3555C25.5234 9.61719 26.0742 8.9668 26.7891 8.4043C27.5156 7.8418 28.3828 7.4082 29.3906 7.10352C30.3984 6.78711 31.5293 6.62891 32.7832 6.62891C34.2715 6.62891 35.5957 6.88086 36.7559 7.38477C37.9277 7.87695 38.8535 8.62109 39.5332 9.61719C40.2129 10.6016 40.5527 11.8438 40.5527 13.3438V21.3066C40.5527 22.4551 40.6172 23.3574 40.7461 24.0137C40.8867 24.6582 41.0859 25.2207 41.3438 25.7012V26H35.8066C35.5488 25.4492 35.3555 24.7695 35.2266 23.9609C35.0977 23.1406 35.0332 22.3086 35.0332 21.4648ZM35.7188 14.3984L35.7539 17.4219H33.0293C32.4199 17.4219 31.8926 17.498 31.4473 17.6504C31.0137 17.8027 30.6621 18.0137 30.3926 18.2832C30.123 18.541 29.9238 18.8457 29.7949 19.1973C29.6777 19.5371 29.6191 19.9121 29.6191 20.3223C29.6191 20.709 29.7129 21.0605 29.9004 21.377C30.0879 21.6816 30.3457 21.9219 30.6738 22.0977C31.002 22.2734 31.3828 22.3613 31.8164 22.3613C32.5312 22.3613 33.1406 22.2207 33.6445 21.9395C34.1602 21.6582 34.5586 21.3184 34.8398 20.9199C35.1211 20.5098 35.2617 20.1289 35.2617 19.7773L36.5801 22.0625C36.3691 22.5312 36.1113 23.0176 35.8066 23.5215C35.502 24.0137 35.1152 24.4766 34.6465 24.9102C34.1777 25.332 33.6094 25.6777 32.9414 25.9473C32.2852 26.2168 31.4941 26.3516 30.5684 26.3516C29.373 26.3516 28.2891 26.1113 27.3164 25.6309C26.3438 25.1387 25.5645 24.4648 24.9785 23.6094C24.4043 22.7539 24.1172 21.7695 24.1172 20.6562C24.1172 19.6602 24.2988 18.7754 24.6621 18.002C25.0254 17.2285 25.5703 16.5723 26.2969 16.0332C27.0352 15.4941 27.9609 15.0898 29.0742 14.8203C30.1875 14.5391 31.4883 14.3984 32.9766 14.3984H35.7188ZM49.6582 11.4102V26H44.1738V6.98047H49.3242L49.6582 11.4102ZM55.3359 6.83984L55.248 11.9551C55.0137 11.9199 54.709 11.8906 54.334 11.8672C53.959 11.832 53.6367 11.8145 53.3672 11.8145C52.6641 11.8145 52.0547 11.9023 51.5391 12.0781C51.0352 12.2422 50.6133 12.4883 50.2734 12.8164C49.9453 13.1445 49.6992 13.5547 49.5352 14.0469C49.3711 14.5273 49.2891 15.084 49.2891 15.7168L48.252 15.207C48.252 13.9531 48.375 12.8047 48.6211 11.7617C48.8672 10.7188 49.2246 9.81641 49.6934 9.05469C50.1621 8.28125 50.7363 7.68359 51.416 7.26172C52.0957 6.83984 52.8691 6.62891 53.7363 6.62891C54.0176 6.62891 54.3047 6.64648 54.5977 6.68164C54.8906 6.7168 55.1367 6.76953 55.3359 6.83984ZM11.4961 36.9805V40.8301H0.210938V36.9805H11.4961ZM2.79492 32.2695H8.29688V50.041C8.29688 50.5684 8.36133 50.9727 8.49023 51.2539C8.61914 51.5352 8.83008 51.7344 9.12305 51.8516C9.41602 51.957 9.79102 52.0098 10.248 52.0098C10.5762 52.0098 10.8574 51.998 11.0918 51.9746C11.3262 51.9512 11.543 51.9219 11.7422 51.8867V55.8594C11.2734 56.0117 10.7754 56.1289 10.248 56.2109C9.7207 56.3047 9.14648 56.3516 8.52539 56.3516C7.3418 56.3516 6.31641 56.1582 5.44922 55.7715C4.59375 55.3848 3.9375 54.7754 3.48047 53.9434C3.02344 53.0996 2.79492 52.0039 2.79492 50.6562V32.2695ZM19.916 36.9805V56H14.4141V36.9805H19.916ZM14.0801 32.0586C14.0801 31.2617 14.3613 30.6113 14.9238 30.1074C15.4863 29.5918 16.2246 29.334 17.1387 29.334C18.0527 29.334 18.791 29.5918 19.3535 30.1074C19.9277 30.6113 20.2148 31.2617 20.2148 32.0586C20.2148 32.8438 19.9277 33.4941 19.3535 34.0098C18.791 34.5137 18.0527 34.7656 17.1387 34.7656C16.2246 34.7656 15.4863 34.5137 14.9238 34.0098C14.3613 33.4941 14.0801 32.8438 14.0801 32.0586ZM35.0332 51.4121V36.9805H40.5527V56H35.3848L35.0332 51.4121ZM35.6133 47.5273L37.125 47.4922C37.125 48.7695 36.9727 49.9473 36.668 51.0254C36.375 52.1035 35.9297 53.041 35.332 53.8379C34.7461 54.6348 34.0137 55.2559 33.1348 55.7012C32.2676 56.1348 31.2539 56.3516 30.0938 56.3516C29.1562 56.3516 28.2949 56.2227 27.5098 55.9648C26.7363 55.6953 26.0684 55.2793 25.5059 54.7168C24.9434 54.1426 24.5098 53.4102 24.2051 52.5195C23.9004 51.6172 23.748 50.5391 23.748 49.2852V36.9805H29.2324V49.3203C29.2324 49.8125 29.291 50.2344 29.4082 50.5859C29.5371 50.9258 29.707 51.207 29.918 51.4297C30.1406 51.6523 30.4102 51.8164 30.7266 51.9219C31.0547 52.0273 31.4121 52.0801 31.7988 52.0801C32.7715 52.0801 33.5332 51.8809 34.084 51.4824C34.6465 51.0723 35.0391 50.5273 35.2617 49.8477C35.4961 49.1562 35.6133 48.3828 35.6133 47.5273ZM50.291 30.4062L49.623 48.0371H45.1055L44.4375 30.4062H50.291ZM44.2793 53.5039C44.2793 52.7188 44.5605 52.0566 45.123 51.5176C45.6855 50.9785 46.4297 50.709 47.3555 50.709C48.2695 50.709 49.002 50.9785 49.5527 51.5176C50.1152 52.0566 50.3965 52.7188 50.3965 53.5039C50.3965 54.3008 50.1152 54.9688 49.5527 55.5078C49.002 56.0352 48.2695 56.2988 47.3555 56.2988C46.4297 56.2988 45.6855 56.0352 45.123 55.5078C44.5605 54.9688 44.2793 54.3008 44.2793 53.5039Z" fill="#42A7C3"/>
</svg>
